<svg xmlns="http://www.w3.org/2000/svg" xml:space="preserve" style="enable-background:new 0 0 97.1 35.6" viewBox="0 0 97.1 35.6"><path d="M95 25.5c0-6.4-4.7-8-4.7-8 3.4-1.6 3-6.5 3-6.5 0-7.9-7.5-7.9-7.5-7.9H48.3l-7.7 11.8V3.1H29.4v19c0 1.7-1.1 2.3-2.3 2.3H15c-1.5 0-2.3-1.5-2.3-2.3v-19H2v23.7c0 3.5 3.4 7 7 7h34.1l2.8-4.8h11.6v4.8h30.7c6.8 0 6.8-8.3 6.8-8.3zM69.5 12.2h13.9c.6 0 1.1.5 1.1 1.1 0 .6-.5 1.1-1.1 1.1H69.5v-2.2zm-12.1 8.4h-6.7l4.8-8.3h1.9v8.3zm27.4 3.9H69.5v-2.2h15.2c.6 0 1.1.5 1.1 1.1.1.6-.4 1.1-1 1.1z" style="fill:#fff"/></svg>